:SAMPLES-PER-SECOND 30
:FULLY-SPECIFIED
:DEGREES
234
root  -3.04457 34.3817 -8.33033 11.3686 -39.5876 -0.0393227
RightUpLeg  -18.9595 -15.1294 -1.41086
RightLeg  16.3577 -3.68608 -0.82837
RightFoot  3.81304 0.0215368 0.0108681
RightToes  -26.634 -0.118901 -0.229496
Spine  1.71491 2.43117 -0.179913
Spine1  3.27531 5.36675 0.0443516
HEad  -52.4626 -17.0904 7.57621
LeftShoulder1  -1.94126e-019 -3.10601e-018 -2.51263e-017
LeftArm  -4.18799 14.4206 -82.5071
LeftForeArm  29.8843 -17.7183 -2.89466
LeftHand  -0.414633 -1.26152 7.38897
RightShoulder  -4.96962e-017 0 -2.36833e-017
RightArm  -11.5379 10.5084 83.7933
RightForeArm  35.7738 49.3447 10.2822
RightHand  0.710432 -9.75913 -19.2229
LeftUpLeg  -24.0117 -1.32149 -0.27922
LeftLeg  15.719 11.4334 2.4182
LeftFoot  7.65954 -0.105409 1.8185
LeftToes  -19.2117 1.34695e-006 1.12385e-007
235
root  -3.16179 34.4221 -8.15583 10.9149 -40.7033 -0.127557
RightUpLeg  -17.5574 -15.4899 -1.52967
RightLeg  14.8446 -2.31939 -0.457254
RightFoot  4.29618 0.0171597 0.075401
RightToes  -26.9973 -0.119826 -0.230564
Spine  1.43759 2.80517 -0.202324
Spine1  2.72493 6.12259 0.00883645
HEad  -55.1534 -17.2535 8.52593
LeftShoulder1  -1.94126e-019 -3.10601e-018 -2.51263e-017
LeftArm  -4.32118 13.3761 -82.7659
LeftForeArm  35.6579 -14.9225 -2.56817
LeftHand  -0.414205 -2.0716 6.63925
RightShoulder  -4.96962e-017 0 -2.36833e-017
RightArm  -11.7002 14.4827 84.4466
RightForeArm  34.7027 31.4002 4.88225
RightHand  0.128791 -6.27617 -18.5478
LeftUpLeg  -22.7964 -0.717581 -0.31562
LeftLeg  15.2933 11.9632 2.43677
LeftFoot  7.33567 -0.103542 1.81929
LeftToes  -18.8463 1.34695e-006 1.12385e-007
236
root  -3.26149 34.4617 -7.9767 10.646 -41.3207 -0.256975
RightUpLeg  -16.188 -14.7372 -1.75
RightLeg  13.3479 -2.43696 -0.414227
RightFoot  4.81919 0.0196218 0.0410305
RightToes  -27.4729 -0.120631 -0.231356
Spine  1.1399 3.32092 -0.0249576
Spine1  2.17521 7.14169 0.398597
HEad  -58.8757 -17.3027 8.87508
LeftShoulder1  -1.94126e-019 -3.10601e-018 -2.51263e-017
LeftArm  -4.24307 12.8981 -83.3088
LeftForeArm  38.3943 -14.3003 -2.5017
LeftHand  -0.418499 -2.29168 6.52994
RightShoulder  -4.96962e-017 0 -2.36833e-017
RightArm  -7.44646 13.1736 82.6228
RightForeArm  37.0069 29.1454 4.24748
RightHand  0.601384 -8.30486 -24.0179
LeftUpLeg  -21.8854 -0.500222 -0.309557
LeftLeg  15.0126 12.4074 2.46317
LeftFoot  7.04004 -0.101403 1.80991
LeftToes  -18.4427 1.34695e-006 1.12385e-007
237
root  -3.37224 34.5155 -7.77555 10.4347 -40.8523 -0.449881
RightUpLeg  -14.4134 -14.4164 -1.89125
RightLeg  11.4514 -3.19346 -0.434269
RightFoot  5.50059 0.0277657 -0.0746032
RightToes  -27.8038 -0.121356 -0.231841
Spine  0.919342 3.67814 -0.060116
Spine1  1.76213 7.77024 0.39895
HEad  -63.2279 -17.3392 10.4499
LeftShoulder1  -1.94126e-019 -3.10601e-018 -2.51263e-017
LeftArm  -3.59628 13.19 -82.9797
LeftForeArm  36.4524 -16.7794 -2.89435
LeftHand  -0.425294 -1.93172 6.93157
RightShoulder  -4.96962e-017 0 -2.36833e-017
RightArm  -8.93046 6.60988 80.4091
RightForeArm  36.7372 41.3732 7.41446
RightHand  0.559972 -8.01428 -24.7885
LeftUpLeg  -21.1084 -0.968873 -0.196237
LeftLeg  14.776 12.4694 2.42234
LeftFoot  6.87845 -0.0977887 1.76609
LeftToes  -18.1425 1.34695e-006 1.12385e-007
238
root  -3.50118 34.5467 -7.54133 10.1775 -39.337 -0.561042
RightUpLeg  -12.5485 -15.1868 -2.0193
RightLeg  9.81033 -3.92475 -0.419505
RightFoot  5.8082 0.0343846 -0.168514
RightToes  -27.7566 -0.12204 -0.232116
Spine  0.625173 3.31566 -0.0234083
Spine1  1.17576 7.01548 0.486305
HEad  -66.0911 -15.7573 11.545
LeftShoulder1  -1.94126e-019 -3.10601e-018 -2.51263e-017
LeftArm  -4.12227 14.7353 -82.4378
LeftForeArm  31.3895 -20.0106 -3.26137
LeftHand  -0.412098 -1.51451 7.09524
RightShoulder  -4.96962e-017 0 -2.36833e-017
RightArm  -11.3815 0.305342 79.3359
RightForeArm  40.3862 56.6716 13.5123
RightHand  0.210144 -6.59894 -21.0828
LeftUpLeg  -20.5109 -1.78009 -0.153584
LeftLeg  14.7209 11.826 2.28748
LeftFoot  6.67451 -0.0892293 1.6341
LeftToes  -18.1172 1.34695e-006 1.12385e-007
239
root  -3.64153 34.5574 -7.31134 9.44072 -37.8911 -0.412347
RightUpLeg  -10.6747 -15.7811 -2.43379
RightLeg  8.83768 -4.72002 -0.423578
RightFoot  5.76989 0.0400445 -0.248789
RightToes  -27.581 -0.122721 -0.23228
Spine  0.336842 2.50031 0.0851418
Spine1  0.600058 5.33143 0.741621
HEad  -66.7565 -13.4414 11.5075
LeftShoulder1  -1.94126e-019 -3.10601e-018 -2.51263e-017
LeftArm  -6.0393 16.9284 -82.158
LeftForeArm  27.4234 -22.619 -3.51815
LeftHand  -0.40189 -1.17929 7.24909
RightShoulder  -4.96962e-017 0 -2.36833e-017
RightArm  -11.5707 -2.06412 79.1307
RightForeArm  48.5816 67.4532 21.9899
RightHand  0.314157 -7.41641 -18.772
LeftUpLeg  -19.4474 -2.6369 -0.298711
LeftLeg  14.4067 11.2773 2.11919
LeftFoot  6.41458 -0.081174 1.50493
LeftToes  -17.5527 1.34695e-006 1.12385e-007
240
root  -3.76294 34.5741 -7.09752 8.46891 -37.2288 0.0409351
RightUpLeg  -9.30178 -15.8677 -3.14056
RightLeg  8.63485 -5.22888 -0.450547
RightFoot  5.41321 0.0419282 -0.275156
RightToes  -27.406 -0.12344 -0.232431
Spine  -0.0907619 1.77542 -0.0560643
Spine1  -0.261586 3.81577 0.511032
HEad  -65.2276 -11.9917 10.8721
LeftShoulder1  -1.94126e-019 -3.10601e-018 -2.51263e-017
LeftArm  -7.78715 19.2561 -81.7051
LeftForeArm  26.1767 -24.6548 -3.85933
LeftHand  -0.406919 -0.808294 7.74582
RightShoulder  -4.96962e-017 0 -2.36833e-017
RightArm  -11.8982 -1.07066 80.3064
RightForeArm  48.4988 68.4301 23.3838
RightHand  0.314544 -7.27515 -20.058
LeftUpLeg  -17.9569 -3.41213 -0.700339
LeftLeg  13.4754 11.4399 1.95896
LeftFoot  6.50073 -0.0828627 1.52848
LeftToes  -17.4742 1.34695e-006 1.12385e-007
241
root  -3.89267 34.6063 -6.90166 7.23625 -37.7561 0.550546
RightUpLeg  -8.24298 -14.9453 -3.94405
RightLeg  9.04919 -5.53783 -0.517445
RightFoot  5.05947 0.0420255 -0.276052
RightToes  -27.1548 -0.124235 -0.232668
Spine  -0.451929 1.47934 -0.35291
Spine1  -0.989675 3.17694 -0.046101
HEad  -62.0157 -11.878 10.0695
LeftShoulder1  -1.94126e-019 -3.10601e-018 -2.51263e-017
LeftArm  -7.83589 20.6045 -81.1491
LeftForeArm  25.6884 -24.7968 -3.91359
LeftHand  -0.416172 -0.432038 8.39832
RightShoulder  -4.96962e-017 0 -2.36833e-017
RightArm  -10.57 1.26849 81.4677
RightForeArm  44.8574 62.4021 17.1517
RightHand  0.668353 -8.67737 -23.6664
LeftUpLeg  -15.8602 -3.63411 -1.17226
LeftLeg  12.0291 12.2227 1.77759
LeftFoot  6.74926 -0.0912884 1.66426
LeftToes  -17.38 1.34695e-006 1.12385e-007
242
root  -4.01404 34.6287 -6.7546 6.17561 -39.2216 1.01354
RightUpLeg  -7.73892 -13.6068 -4.57129
RightLeg  9.69143 -5.40032 -0.565706
RightFoot  4.75313 0.0395943 -0.240867
RightToes  -27.2159 -0.125146 -0.233088
Spine  -0.71377 1.65027 -0.646609
Spine1  -1.5166 3.48593 -0.616873
HEad  -58.8139 -12.4263 9.72922
LeftShoulder1  -1.94126e-019 -3.10601e-018 -2.51263e-017
LeftArm  -6.81335 20.4449 -80.84
LeftForeArm  25.8589 -22.7206 -3.58266
LeftHand  -0.407545 -0.45375 8.19704
RightShoulder  -4.96962e-017 0 -2.36833e-017
RightArm  -10.8566 3.16315 82.1004
RightForeArm  40.4128 53.7835 11.9823
RightHand  0.765949 -10.025 -19.4886
LeftUpLeg  -13.9683 -3.33017 -1.58135
LeftLeg  10.7332 13.4 1.64051
LeftFoot  6.88699 -0.101055 1.83463
LeftToes  -17.2459 1.34695e-006 1.12385e-007
243
root  -4.12712 34.6239 -6.63782 5.03959 -41.0146 1.37552
RightUpLeg  -7.1979 -12.5236 -5.08874
RightLeg  10.2433 -4.71899 -0.540445
RightFoot  4.3627 0.0332702 -0.150105
RightToes  -27.3661 -0.126211 -0.23379
Spine  -0.677929 2.18924 -0.854443
Spine1  -1.47615 4.60015 -1.06368
HEad  -57.5764 -12.8759 9.98164
LeftShoulder1  -1.94126e-019 -3.10601e-018 -2.51263e-017
LeftArm  -5.94203 18.9554 -80.9451
LeftForeArm  28.482 -19.4523 -3.11249
LeftHand  -0.385351 -1.00271 7.13346
RightShoulder  -4.96962e-017 0 -2.36833e-017
RightArm  -13.1951 5.56469 82.5471
RightForeArm  32.0179 43.4924 8.4212
RightHand  0.34803 -8.8196 -12.6972
LeftUpLeg  -12.1998 -2.68701 -1.8961
LeftLeg  9.88059 14.5519 1.56185
LeftFoot  6.78526 -0.106417 1.95651
LeftToes  -17.2124 1.34695e-006 1.12385e-007
244
root  -4.18803 34.5976 -6.56112 4.25769 -42.3698 1.61348
RightUpLeg  -6.98697 -11.8354 -5.43675
RightLeg  10.8446 -4.0333 -0.504948
RightFoot  3.9712 0.0272544 -0.063811
RightToes  -27.59 -0.127682 -0.234872
Spine  -0.406643 2.80801 -0.860239
Spine1  -0.963346 5.89632 -1.10899
HEad  -59.0678 -13.0818 10.1843
LeftShoulder1  -1.94126e-019 -3.10601e-018 -2.51263e-017
LeftArm  -5.58243 16.8682 -81.5809
LeftForeArm  33.28 -16.5208 -2.70104
LeftHand  -0.379941 -1.81765 6.30099
RightShoulder  -4.96962e-017 0 -2.36833e-017
RightArm  -9.14453 4.96606 81.378
RightForeArm  32.8626 41.3752 7.67803
RightHand  0.566526 -9.17278 -17.8911
LeftUpLeg  -11.2699 -2.00213 -2.11618
LeftLeg  9.8482 15.2227 1.62362
LeftFoot  6.40553 -0.0998325 1.94551
LeftToes  -16.845 1.34695e-006 1.12385e-007
245
root  -4.19304 34.5919 -6.52037 4.10607 -42.66 1.63909
RightUpLeg  -6.97974 -12.0206 -5.54367
RightLeg  11.0679 -3.57204 -0.461381
RightFoot  3.92742 0.0251913 -0.0340624
RightToes  -27.8852 -0.129004 -0.237002
Spine  -0.174988 3.18509 -0.946394
Spine1  -0.496744 6.63005 -1.26688
HEad  -62.2498 -13.3784 10.7834
LeftShoulder1  -1.94126e-019 -3.10601e-018 -2.51263e-017
LeftArm  -5.38741 15.6985 -81.8012
LeftForeArm  37.0866 -16.2597 -2.67633
LeftHand  -0.409355 -2.28754 6.39478
RightShoulder  -4.96962e-017 0 -2.36833e-017
RightArm  -6.79265 1.05599 79.8812
RightForeArm  41.791 48.5578 9.56045
RightHand  0.632541 -8.34171 -24.853
LeftUpLeg  -11.2582 -1.58935 -2.18514
LeftLeg  10.256 15.0725 1.71519
LeftFoot  6.14566 -0.0913361 1.85609
LeftToes  -16.9272 1.34695e-006 1.12385e-007
246
root  -4.15842 34.5937 -6.50395 4.63578 -41.9239 1.49541
RightUpLeg  -7.19821 -12.661 -5.4239
RightLeg  10.8996 -3.66861 -0.46289
RightFoot  4.07042 0.0263574 -0.0505145
RightToes  -27.8824 -0.130344 -0.238534
Spine  -0.276472 2.90501 -0.937312
Spine1  -0.693931 6.06302 -1.24604
HEad  -64.2807 -12.7544 10.4108
LeftShoulder1  -1.94126e-019 -3.10601e-018 -2.51263e-017
LeftArm  -5.65763 16.7434 -81.7401
LeftForeArm  35.5884 -17.9683 -2.85992
LeftHand  -0.446909 -1.74286 7.45278
RightShoulder  -4.96962e-017 0 -2.36833e-017
RightArm  -8.31301 -2.26806 79.7943
RightForeArm  45.8391 59.3563 14.7259
RightHand  0.112143 -5.96203 -23.9272
LeftUpLeg  -12.1181 -1.72111 -2.13951
LeftLeg  10.9447 14.475 1.82307
LeftFoot  5.96661 -0.0818542 1.74252
LeftToes  -16.9596 1.34695e-006 1.12385e-007
247
root  -4.13313 34.6004 -6.49044 5.06418 -41.028 1.41431
RightUpLeg  -7.11371 -13.2436 -5.33409
RightLeg  10.3343 -4.00384 -0.465051
RightFoot  4.27513 0.0295057 -0.0953468
RightToes  -27.8362 -0.131666 -0.239917
Spine  -0.470923 2.1256 -0.781354
Spine1  -1.043 4.43877 -0.884181
HEad  -64.6354 -11.5049 8.73003
LeftShoulder1  -1.94126e-019 -3.10601e-018 -2.51263e-017
LeftArm  -6.37035 18.947 -81.727
LeftForeArm  30.7672 -19.7571 -3.02797
LeftHand  -0.440791 -0.981681 8.16781
RightShoulder  -4.96962e-017 0 -2.36833e-017
RightArm  -7.83755 -1.13538 80.5916
RightForeArm  49.7658 66.2196 20.3483
RightHand  0.0675665 -5.81541 -21.006
LeftUpLeg  -12.7658 -1.83164 -2.13497
LeftLeg  11.2943 13.7024 1.81176
LeftFoot  5.86618 -0.0727357 1.6265
LeftToes  -16.5097 1.34695e-006 1.12385e-007
248
root  -4.13008 34.6093 -6.48322 5.24506 -40.8147 1.39153
RightUpLeg  -7.00598 -13.0149 -5.28349
RightLeg  9.88766 -4.46747 -0.483594
RightFoot  4.50326 0.0336269 -0.154135
RightToes  -28.0678 -0.132933 -0.241151
Spine  -0.708016 1.35073 -0.666961
Spine1  -1.48583 2.82736 -0.607825
HEad  -63.4095 -9.89755 7.11352
LeftShoulder1  -1.94126e-019 -3.10601e-018 -2.51263e-017
LeftArm  -6.90007 21.1029 -81.6401
LeftForeArm  27.2014 -20.4386 -3.15187
LeftHand  -0.408392 -0.744099 7.8494
RightShoulder  -4.96962e-017 0 -2.36833e-017
RightArm  -6.52734 2.90123 82.3687
RightForeArm  49.5234 65.6673 19.7763
RightHand  0.18415 -6.59254 -18.9853
LeftUpLeg  -12.8543 -1.74299 -2.12966
LeftLeg  11.0976 13.3961 1.72571
LeftFoot  5.98561 -0.0707761 1.61443
LeftToes  -16.7517 1.34695e-006 1.12385e-007
